<svg width="1280" height="720" viewBox="0 0 1280 720" xmlns="http://www.w3.org/2000/svg">

  <!-- bg -->
  <rect width="1280" height="720" fill="#08090c"/>

  <!-- ══ TOPBAR  h=56 ════════════════════════════════════════════════════ -->
  <rect x="0" y="0" width="1280" height="56" fill="#111318"/>
  <line x1="0" y1="56" x2="1280" y2="56" stroke="#21252f" stroke-width="1"/>

  <!-- logo box 26×26 at x=28,y=15 -->
  <rect x="28" y="15" width="26" height="26" rx="6" fill="#6c8aff"/>
  <!-- mini monitor inside logo: screen 18×11 at (32,19), stand 4×3, base 10×1.5 -->
  <rect x="32" y="19" width="18" height="11" rx="1.5" fill="none" stroke="rgba(255,255,255,0.9)" stroke-width="1.5"/>
  <rect x="39" y="30" width="4" height="3"   fill="rgba(255,255,255,0.75)"/>
  <rect x="36" y="33" width="10" height="1.5" rx="0.5" fill="rgba(255,255,255,0.75)"/>

  <!-- title + admin badge -->
  <text x="66" y="34" font-family="'Segoe UI',system-ui,sans-serif"
        font-size="13.5" font-weight="700" fill="#dde2f0">Presentation Hub</text>
  <rect x="200" y="21" width="44" height="16" rx="8" fill="rgba(108,138,255,0.15)"/>
  <text x="222" y="33" text-anchor="middle" font-family="'Courier New',monospace"
        font-size="9.5" fill="#6c8aff">Admin</text>

  <!-- right controls: username, "Public site ↗", "Log out" -->
  <text x="1028" y="34" font-family="'Courier New',monospace" font-size="11" fill="#525870">admin</text>
  <rect x="1092" y="18" width="80" height="22" rx="6" fill="#181b22" stroke="#21252f" stroke-width="1"/>
  <text x="1132" y="33" text-anchor="middle" font-family="'Segoe UI',system-ui,sans-serif"
        font-size="11.5" font-weight="600" fill="#dde2f0">Public site ↗</text>
  <rect x="1184" y="18" width="68" height="22" rx="6" fill="#181b22" stroke="#21252f" stroke-width="1"/>
  <text x="1218" y="33" text-anchor="middle" font-family="'Segoe UI',system-ui,sans-serif"
        font-size="11.5" font-weight="600" fill="#dde2f0">Log out</text>

  <!-- ══ LEFT PANEL  x=0 w=320  bg=#111318 ═════════════════════════════ -->
  <rect x="0" y="57" width="320" height="663" fill="#111318"/>
  <line x1="320" y1="57" x2="320" y2="720" stroke="#21252f" stroke-width="1"/>

  <!-- panel title -->
  <text x="28" y="96" font-family="'Courier New',monospace" font-size="10.5"
        font-weight="600" fill="#525870" letter-spacing="2">UPLOAD PRESENTATION</text>

  <!-- "DISPLAY NAME *" label -->
  <text x="28" y="129" font-family="'Courier New',monospace" font-size="10.5"
        fill="#525870" letter-spacing="1">DISPLAY NAME *</text>

  <!-- f-input  y=135 h=34 -->
  <rect x="28" y="135" width="264" height="34" rx="7" fill="#181b22" stroke="#21252f" stroke-width="1"/>
  <text x="42" y="157" font-family="'Segoe UI',system-ui,sans-serif"
        font-size="13" fill="#525870">e.g. Q3 Results</text>

  <!-- dropzone  y=185 h=100 -->
  <rect x="28" y="185" width="264" height="100" rx="9" fill="transparent"
        stroke="#21252f" stroke-width="2" stroke-dasharray="6 3"/>
  <!-- document icon centered at (160,224) — 16×20px -->
  <polygon points="152,214 161,214 168,221 168,234 152,234"
           fill="rgba(108,138,255,0.1)" stroke="rgba(108,138,255,0.5)" stroke-width="1.5"/>
  <polyline points="161,214 161,221 168,221"
            fill="none" stroke="rgba(108,138,255,0.5)" stroke-width="1.5"/>
  <line x1="156" y1="225" x2="164" y2="225" stroke="rgba(108,138,255,0.4)" stroke-width="1"/>
  <line x1="156" y1="229" x2="164" y2="229" stroke="rgba(108,138,255,0.4)" stroke-width="1"/>
  <text x="160" y="248" text-anchor="middle" font-family="'Segoe UI',system-ui,sans-serif"
        font-size="12" fill="#525870">Drop a <tspan fill="#6c8aff" font-weight="600">.html</tspan> file or click</text>

  <!-- upload button  y=301 h=37 disabled -->
  <rect x="28" y="301" width="264" height="37" rx="8" fill="#6c8aff" opacity="0.38"/>
  <text x="160" y="324" text-anchor="middle" font-family="'Segoe UI',system-ui,sans-serif"
        font-size="13" font-weight="700" fill="white">↑ Upload</text>

  <!-- ══ RIGHT PANEL  x=320 w=960  bg=#08090c ══════════════════════════ -->
  <rect x="320" y="57" width="960" height="663" fill="#08090c"/>

  <!-- list header -->
  <text x="348" y="96" font-family="'Courier New',monospace" font-size="10.5"
        font-weight="600" fill="#525870" letter-spacing="2">ALL PRESENTATIONS</text>
  <rect x="1226" y="81" width="26" height="18" rx="9" fill="rgba(108,138,255,0.12)"/>
  <text x="1239" y="94" text-anchor="middle" font-family="'Courier New',monospace"
        font-size="10" fill="#6c8aff">3</text>

  <!--
    Cards x=348 w=904  h=66  gap=8
    icon box 36×36 at x=366, icon content: screen 22×13 at (373, icon_y+5), stand/base below
    4 action btns 30×30 gap=5.6: x = 1097 / 1133 / 1169 / 1205   right-edge=1234
    btn center-y = card_center_y - 15
  -->

  <!-- ── Card 1  y=120  center=153 ───────────────────────────────── -->
  <rect x="348" y="120" width="904" height="66" rx="10"
        fill="#111318" stroke="#21252f" stroke-width="1"/>
  <!-- icon box -->
  <rect x="366" y="134" width="36" height="36" rx="8" fill="rgba(108,138,255,0.1)"/>
  <!-- monitor: screen 22×13 -->
  <rect x="373" y="139" width="22" height="13" rx="1.5"
        fill="none" stroke="rgba(108,138,255,0.55)" stroke-width="1.5"/>
  <rect x="381" y="152" width="6" height="5"   fill="rgba(108,138,255,0.4)"/>
  <rect x="377" y="157" width="14" height="2" rx="1" fill="rgba(108,138,255,0.4)"/>
  <!-- text -->
  <text x="416" y="148" font-family="'Segoe UI',system-ui,sans-serif"
        font-size="14" font-weight="600" fill="#dde2f0">Q3 Strategy Overview</text>
  <text x="416" y="163" font-family="'Courier New',monospace" font-size="9.5"
        fill="#525870">q3-strategy-overview.html · 84.2 KB · Jan 12, 2025</text>
  <!-- 4 action buttons  btn-y = 153-15 = 138 -->
  <rect x="1097" y="138" width="30" height="30" rx="6" fill="#181b22" stroke="#21252f" stroke-width="1"/>
  <text x="1112" y="157" text-anchor="middle" font-size="13" fill="#525870">↗</text>
  <rect x="1133" y="138" width="30" height="30" rx="6" fill="#181b22" stroke="#21252f" stroke-width="1"/>
  <!-- pencil icon: diagonal line + tip -->
  <line x1="1144" y1="161" x2="1156" y2="144" stroke="#525870" stroke-width="1.5" stroke-linecap="round"/>
  <line x1="1142" y1="163" x2="1144" y2="161" stroke="#525870" stroke-width="1.5" stroke-linecap="round"/>
  <line x1="1142" y1="163" x2="1145" y2="163" stroke="#525870" stroke-width="1.5" stroke-linecap="round"/>
  <rect x="1169" y="138" width="30" height="30" rx="6" fill="#181b22" stroke="#21252f" stroke-width="1"/>
  <text x="1184" y="157" text-anchor="middle" font-size="13" fill="#525870">↑</text>
  <rect x="1205" y="138" width="30" height="30" rx="6" fill="#181b22" stroke="#21252f" stroke-width="1"/>
  <text x="1220" y="157" text-anchor="middle" font-size="13" fill="#525870">✕</text>

  <!-- ── Card 2  y=194  center=227 ───────────────────────────────── -->
  <rect x="348" y="194" width="904" height="66" rx="10"
        fill="#111318" stroke="#21252f" stroke-width="1"/>
  <rect x="366" y="208" width="36" height="36" rx="8" fill="rgba(108,138,255,0.1)"/>
  <rect x="373" y="213" width="22" height="13" rx="1.5"
        fill="none" stroke="rgba(108,138,255,0.55)" stroke-width="1.5"/>
  <rect x="381" y="226" width="6" height="5"   fill="rgba(108,138,255,0.4)"/>
  <rect x="377" y="231" width="14" height="2" rx="1" fill="rgba(108,138,255,0.4)"/>
  <text x="416" y="222" font-family="'Segoe UI',system-ui,sans-serif"
        font-size="14" font-weight="600" fill="#dde2f0">Product Roadmap 2025</text>
  <text x="416" y="237" font-family="'Courier New',monospace" font-size="9.5"
        fill="#525870">product-roadmap-2025.html · 112.7 KB · Jan 8, 2025</text>
  <!-- buttons  y=212 -->
  <rect x="1097" y="212" width="30" height="30" rx="6" fill="#181b22" stroke="#21252f" stroke-width="1"/>
  <text x="1112" y="231" text-anchor="middle" font-size="13" fill="#525870">↗</text>
  <rect x="1133" y="212" width="30" height="30" rx="6" fill="#181b22" stroke="#21252f" stroke-width="1"/>
  <line x1="1144" y1="235" x2="1156" y2="218" stroke="#525870" stroke-width="1.5" stroke-linecap="round"/>
  <line x1="1142" y1="237" x2="1144" y2="235" stroke="#525870" stroke-width="1.5" stroke-linecap="round"/>
  <line x1="1142" y1="237" x2="1145" y2="237" stroke="#525870" stroke-width="1.5" stroke-linecap="round"/>
  <rect x="1169" y="212" width="30" height="30" rx="6" fill="#181b22" stroke="#21252f" stroke-width="1"/>
  <text x="1184" y="231" text-anchor="middle" font-size="13" fill="#525870">↑</text>
  <!-- delete hovered: red border + red fill -->
  <rect x="1205" y="212" width="30" height="30" rx="6"
        fill="rgba(255,95,95,0.06)" stroke="#ff5f5f" stroke-width="1"/>
  <text x="1220" y="231" text-anchor="middle" font-size="13" fill="#ff5f5f">✕</text>

  <!-- ── Card 3  y=268  center=301 ───────────────────────────────── -->
  <rect x="348" y="268" width="904" height="66" rx="10"
        fill="#111318" stroke="#21252f" stroke-width="1"/>
  <rect x="366" y="282" width="36" height="36" rx="8" fill="rgba(108,138,255,0.1)"/>
  <rect x="373" y="287" width="22" height="13" rx="1.5"
        fill="none" stroke="rgba(108,138,255,0.55)" stroke-width="1.5"/>
  <rect x="381" y="300" width="6" height="5"   fill="rgba(108,138,255,0.4)"/>
  <rect x="377" y="305" width="14" height="2" rx="1" fill="rgba(108,138,255,0.4)"/>
  <text x="416" y="296" font-family="'Segoe UI',system-ui,sans-serif"
        font-size="14" font-weight="600" fill="#dde2f0">Engineering All-Hands</text>
  <text x="416" y="311" font-family="'Courier New',monospace" font-size="9.5"
        fill="#525870">engineering-all-hands.html · 67.4 KB · Dec 19, 2024</text>
  <!-- buttons  y=286 -->
  <rect x="1097" y="286" width="30" height="30" rx="6" fill="#181b22" stroke="#21252f" stroke-width="1"/>
  <text x="1112" y="305" text-anchor="middle" font-size="13" fill="#525870">↗</text>
  <rect x="1133" y="286" width="30" height="30" rx="6" fill="#181b22" stroke="#21252f" stroke-width="1"/>
  <line x1="1144" y1="309" x2="1156" y2="292" stroke="#525870" stroke-width="1.5" stroke-linecap="round"/>
  <line x1="1142" y1="311" x2="1144" y2="309" stroke="#525870" stroke-width="1.5" stroke-linecap="round"/>
  <line x1="1142" y1="311" x2="1145" y2="311" stroke="#525870" stroke-width="1.5" stroke-linecap="round"/>
  <rect x="1169" y="286" width="30" height="30" rx="6" fill="#181b22" stroke="#21252f" stroke-width="1"/>
  <text x="1184" y="305" text-anchor="middle" font-size="13" fill="#525870">↑</text>
  <rect x="1205" y="286" width="30" height="30" rx="6" fill="#181b22" stroke="#21252f" stroke-width="1"/>
  <text x="1220" y="305" text-anchor="middle" font-size="13" fill="#525870">✕</text>

</svg>
